<?xml version="1.0" standalone="no"?>
<!DOCTYPE svg PUBLIC "-//W3C//DTD SVG 20010904//EN"
 "http://www.w3.org/TR/2001/REC-SVG-20010904/DTD/svg10.dtd">
<svg version="1.0" xmlns="http://www.w3.org/2000/svg"
 width="250.000000pt" height="150.000000pt" viewBox="0 0 250.000000 150.000000"
 preserveAspectRatio="xMidYMid meet">
<metadata>
Created by potrace 1.16, written by Peter Selinger 2001-2019
</metadata>
<g transform="translate(0.000000,150.000000) scale(0.020833,-0.016892)"
fill="#000000" stroke="none">
<path d="M2375 7790 c-104 -3 -157 -7 -117 -8 l72 -2 0 -687 c0 -379 -4 -681
-9 -673 -4 8 -34 81 -66 162 -32 81 -60 146 -62 145 -2 -2 75 -204 171 -448
521 -1331 874 -2230 1311 -3344 267 -682 572 -1460 677 -1728 l192 -488 103 3
104 3 1098 2605 c603 1433 1191 2829 1306 3103 l210 498 73 -3 74 -3 1039
-2670 1040 -2670 -6 -76 c-10 -147 -62 -266 -160 -365 -111 -112 -210 -166
-370 -200 -92 -20 -378 -52 -532 -60 l-123 -7 0 -139 0 -138 1645 0 1645 0 0
138 0 137 -137 17 c-177 22 -381 62 -480 94 -138 45 -275 140 -344 240 -40 58
-78 179 -85 271 -7 79 -217 622 -1890 4876 -101 258 -184 481 -184 497 0 61
32 207 62 278 60 145 168 224 378 277 121 31 408 81 523 91 l77 7 0 138 0 139
-1202 0 -1203 0 -24 -113 c-32 -150 -110 -426 -159 -563 -54 -151 -1983 -4864
-1991 -4864 -4 0 -185 444 -403 988 -335 831 -1809 4501 -1825 4540 -5 13 -56
13 -428 2z"/>
<path d="M6818 7207 c-20 -50 -141 -346 -268 -657 -128 -311 -465 -1134 -750
-1830 -285 -696 -572 -1398 -639 -1561 l-122 -296 3 -158 3 -159 237 580 c130
318 513 1254 851 2079 338 825 641 1565 673 1645 l59 145 -5 152 -5 153 -37
-93z"/>
<path d="M8025 4696 c-121 -30 -535 -128 -920 -220 -385 -92 -708 -169 -717
-172 -11 -3 -54 -93 -122 -254 -58 -137 -106 -251 -106 -253 0 -10 177 -17
690 -27 289 -5 604 -12 700 -15 527 -15 1092 -26 1097 -21 3 3 -71 202 -166
443 -217 557 -224 573 -230 572 -3 0 -105 -24 -226 -53z"/>
<path d="M2187 1245 c23 -27 64 -66 92 -85 l50 -35 1 -252 0 -253 -72 -1 c-52
-1 -66 -3 -48 -9 14 -4 247 -8 518 -9 l493 -1 -3 137 -3 136 -115 23 c-160 31
-426 100 -545 141 -165 57 -241 100 -330 183 -67 64 -73 67 -38 25z"/>
</g>
</svg>
